{
    "asset" : {
        "generator" : "Khronos glTF Blender I/O v1.8.19",
        "version" : "2.0"
    },
    "scene" : 0,
    "scenes" : [
        {
            "name" : "Scene",
            "nodes" : [
                0,
                1,
                2,
                3
            ]
        }
    ],
    "nodes" : [
        {
            "mesh" : 0,
            "name" : "Head",
            "translation" : [
                0,
                3.4367144107818604,
                0
            ]
        },
        {
            "mesh" : 1,
            "name" : "Body",
            "translation" : [
                0,
                1.6658093929290771,
                0
            ]
        },
        {
            "mesh" : 2,
            "name" : "Right Hand",
            "scale" : [
                0.37303435802459717,
                0.37303435802459717,
                0.37303435802459717
            ],
            "translation" : [
                1.4622288942337036,
                2.1283771991729736,
                0.7258168458938599
            ]
        },
        {
            "mesh" : 3,
            "name" : "Left Hand",
            "scale" : [
                0.37303435802459717,
                0.37303435802459717,
                0.37303435802459717
            ],
            "translation" : [
                1.4622288942337036,
                2.1283771991729736,
                -0.6138116121292114
            ]
        }
    ],
    "materials" : [
        {
            "doubleSided" : true,
            "emissiveFactor" : [
                0,
                0.9566800594329834,
                1
            ],
            "name" : "Material",
            "pbrMetallicRoughness" : {
                "baseColorFactor" : [
                    0,
                    0.4983171224594116,
                    0.8000000715255737,
                    1
                ],
                "metallicFactor" : 0,
                "roughnessFactor" : 0.5
            }
        }
    ],
    "meshes" : [
        {
            "name" : "Icosphere",
            "primitives" : [
                {
                    "attributes" : {
                        "POSITION" : 0,
                        "NORMAL" : 1,
                        "TEXCOORD_0" : 2
                    },
                    "indices" : 3,
                    "material" : 0
                }
            ]
        },
        {
            "name" : "Icosphere.001",
            "primitives" : [
                {
                    "attributes" : {
                        "POSITION" : 4,
                        "NORMAL" : 5,
                        "TEXCOORD_0" : 6
                    },
                    "indices" : 7,
                    "material" : 0
                }
            ]
        },
        {
            "name" : "Icosphere.004",
            "primitives" : [
                {
                    "attributes" : {
                        "POSITION" : 8,
                        "NORMAL" : 9,
                        "TEXCOORD_0" : 10
                    },
                    "indices" : 11,
                    "material" : 0
                }
            ]
        },
        {
            "name" : "Icosphere.005",
            "primitives" : [
                {
                    "attributes" : {
                        "POSITION" : 12,
                        "NORMAL" : 13,
                        "TEXCOORD_0" : 14
                    },
                    "indices" : 11,
                    "material" : 0
                }
            ]
        }
    ],
    "accessors" : [
        {
            "bufferView" : 0,
            "componentType" : 5126,
            "count" : 68,
            "max" : [
                0.9017060995101929,
                1,
                0.9999999403953552
            ],
            "min" : [
                -0.9510578513145447,
                -1,
                -0.9999999403953552
            ],
            "type" : "VEC3"
        },
        {
            "bufferView" : 1,
            "componentType" : 5126,
            "count" : 68,
            "type" : "VEC3"
        },
        {
            "bufferView" : 2,
            "componentType" : 5126,
            "count" : 68,
            "type" : "VEC2"
        },
        {
            "bufferView" : 3,
            "componentType" : 5123,
            "count" : 264,
            "type" : "SCALAR"
        },
        {
            "bufferView" : 4,
            "componentType" : 5126,
            "count" : 78,
            "max" : [
                0.9510578513145447,
                1.1578624248504639,
                0.9999999403953552
            ],
            "min" : [
                -1.0510141849517822,
                -1,
                -0.9999999403953552
            ],
            "type" : "VEC3"
        },
        {
            "bufferView" : 5,
            "componentType" : 5126,
            "count" : 78,
            "type" : "VEC3"
        },
        {
            "bufferView" : 6,
            "componentType" : 5126,
            "count" : 78,
            "type" : "VEC2"
        },
        {
            "bufferView" : 7,
            "componentType" : 5123,
            "count" : 318,
            "type" : "SCALAR"
        },
        {
            "bufferView" : 8,
            "componentType" : 5126,
            "count" : 63,
            "max" : [
                0.9017060995101929,
                1,
                0.9999999403953552
            ],
            "min" : [
                -0.9510578513145447,
                -1,
                -0.9999999403953552
            ],
            "type" : "VEC3"
        },
        {
            "bufferView" : 9,
            "componentType" : 5126,
            "count" : 63,
            "type" : "VEC3"
        },
        {
            "bufferView" : 10,
            "componentType" : 5126,
            "count" : 63,
            "type" : "VEC2"
        },
        {
            "bufferView" : 11,
            "componentType" : 5123,
            "count" : 240,
            "type" : "SCALAR"
        },
        {
            "bufferView" : 12,
            "componentType" : 5126,
            "count" : 63,
            "max" : [
                0.9017060995101929,
                1,
                0.9999999403953552
            ],
            "min" : [
                -0.9510578513145447,
                -1,
                -0.9999999403953552
            ],
            "type" : "VEC3"
        },
        {
            "bufferView" : 13,
            "componentType" : 5126,
            "count" : 63,
            "type" : "VEC3"
        },
        {
            "bufferView" : 14,
            "componentType" : 5126,
            "count" : 63,
            "type" : "VEC2"
        }
    ],
    "bufferViews" : [
        {
            "buffer" : 0,
            "byteLength" : 816,
            "byteOffset" : 0
        },
        {
            "buffer" : 0,
            "byteLength" : 816,
            "byteOffset" : 816
        },
        {
            "buffer" : 0,
            "byteLength" : 544,
            "byteOffset" : 1632
        },
        {
            "buffer" : 0,
            "byteLength" : 528,
            "byteOffset" : 2176
        },
        {
            "buffer" : 0,
            "byteLength" : 936,
            "byteOffset" : 2704
        },
        {
            "buffer" : 0,
            "byteLength" : 936,
            "byteOffset" : 3640
        },
        {
            "buffer" : 0,
            "byteLength" : 624,
            "byteOffset" : 4576
        },
        {
            "buffer" : 0,
            "byteLength" : 636,
            "byteOffset" : 5200
        },
        {
            "buffer" : 0,
            "byteLength" : 756,
            "byteOffset" : 5836
        },
        {
            "buffer" : 0,
            "byteLength" : 756,
            "byteOffset" : 6592
        },
        {
            "buffer" : 0,
            "byteLength" : 504,
            "byteOffset" : 7348
        },
        {
            "buffer" : 0,
            "byteLength" : 480,
            "byteOffset" : 7852
        },
        {
            "buffer" : 0,
            "byteLength" : 756,
            "byteOffset" : 8332
        },
        {
            "buffer" : 0,
            "byteLength" : 756,
            "byteOffset" : 9088
        },
        {
            "buffer" : 0,
            "byteLength" : 504,
            "byteOffset" : 9844
        }
    ],
    "buffers" : [
        {
            "byteLength" : 10348,
            "uri" : "data:application/octet-stream;base64,"
        }
    ]
}
